#define close_width  18
#define close_height 18
static unsigned char close_bits[] = {
 0x00,0x00,0xfc,0x00,0x00,0xfc,0xfc,0xff,0xfc,0xfc,0xff,0xfc,
 0xfc,0xff,0xfc,0x1c,0xe0,0xfc,0x1c,0xe0,0xfc,0x1c,0xe0,0xfc,
 0x1c,0xe0,0xfc,0x1c,0xe0,0xfc,0x1c,0xe0,0xfc,0x1c,0xe0,0xfc,
 0x1c,0xe0,0xfc,0xfc,0xff,0xfc,0xfc,0xff,0xfc,0xfc,0xff,0xfc,
 0x00,0x00,0xfc,0x00,0x00,0xfc};
